<svg height="511pt" viewBox="0 -44 511.99985 511" width="511pt" xmlns="http://www.w3.org/2000/svg"><path d="m351.757812 166.488281c-28.59375-43.84375 10.480469-82.917969 10.480469-82.917969h-323.398437s39.074218 39.078126 10.484375 82.917969c-22.183594 34.011719-54.132813 103.019531-33.0625 180.316407 11.054687 40.570312 48.324219 68.429687 90.375 68.429687h187.804687c42.050782 0 79.320313-27.859375 90.378906-68.429687 21.066407-77.296876-10.882812-146.304688-33.0625-180.316407zm0 0" fill="#abebf4"/><path d="m38.839844 83.570312s39.074218 39.074219 10.484375 82.917969c-22.183594 34.011719-54.132813 103.019531-33.0625 180.316407 11.054687 40.570312 48.324219 68.429687 90.375 68.429687h50.53125c-18.808594-30.617187-49.402344-95.203125-29.789063-168.253906 25.386719-94.542969 155.992188-90.503907 223.621094-81.679688-27.125-43.355469 11.238281-81.730469 11.238281-81.730469zm0 0" fill="#8ed7e8"/><path d="m16.261719 346.804688c11.054687 40.570312 48.324219 68.429687 90.375 68.429687h187.804687c42.050782 0 79.320313-27.859375 90.378906-68.429687 15.25-55.945313 2.722657-107.546876-13.773437-144.683594h-341.015625c-16.492188 37.136718-29.019531 88.738281-13.769531 144.683594zm0 0" fill="#ffeb99"/><path d="m153.101562 202.121094h-123.070312c-16.492188 37.136718-29.019531 88.738281-13.769531 144.683594 11.054687 40.570312 48.324219 68.429687 90.375 68.429687h50.53125c-18.808594-30.613281-49.402344-95.203125-29.789063-168.25 4.964844-18.496094 13.964844-33.210937 25.722656-44.863281zm0 0" fill="#ffde55"/><path d="m351.113281 118.222656h-301.148437c-23.355469 0-42.464844-19.113281-42.464844-42.46875 0-23.355468 19.109375-42.464844 42.464844-42.464844h301.148437c23.355469 0 42.464844 19.109376 42.464844 42.464844 0 23.359375-19.109375 42.46875-42.464844 42.46875zm0 0" fill="#ccf8ff"/><path d="m371.136719 123.890625-38.4375 18.964844 94.167969 233.238281c8.773437 21.726562 34.167968 31.414062 55.179687 21.042969 21.015625-10.367188 28.78125-36.410157 16.878906-56.59375zm0 0" fill="#ffb864"/><path d="m371.136719 123.890625-38.4375 18.964844 29.328125 72.640625c12.671875-15.464844 28.152344-28.195313 41.085937-37.390625zm0 0" fill="#f4a651"/><path d="m359.574219 56.40625-73.394531 36.207031c-12.585938 6.210938-27.964844.992188-34.175782-11.59375-6.210937-12.589843-.992187-27.96875 11.59375-34.179687l73.394532-36.207032c12.589843-6.210937 27.96875-.992187 34.179687 11.59375 6.210937 12.589844.992187 27.96875-11.597656 34.179688zm0 0" fill="#ffdaaa"/><path d="m400.1875 138.726562-73.394531 36.207032c-12.585938 6.210937-27.964844.992187-34.175781-11.59375-6.210938-12.589844-.992188-27.96875 11.59375-34.179688l73.394531-36.207031c12.589843-6.210937 27.96875-.992187 34.179687 11.59375 6.210938 12.585937.992188 27.96875-11.597656 34.179687zm0 0" fill="#ffdaaa"/><path d="m393.394531 90.898438-100.417969 49.542968c-12.589843 6.207032-27.96875.992188-34.179687-11.597656-6.207031-12.585938-.992187-27.964844 11.597656-34.175781l100.417969-49.542969c12.585938-6.210938 27.96875-.992188 34.175781 11.59375 6.210938 12.589844.992188 27.96875-11.59375 34.179688zm0 0" fill="#ffc477"/><path d="m88.445312 33.289062v104.117188c0 13.328125 10.902344 24.230469 24.230469 24.230469 13.324219 0 24.230469-10.902344 24.230469-24.230469v-55.363281c0-8.804688 7.199219-16.003907 16.003906-16.003907 8.800782 0 16.003906 7.199219 16.003906 16.003907v35.335937c0 13.328125 10.902344 24.230469 24.230469 24.230469s24.230469-10.902344 24.230469-24.230469v-84.089844zm0 0" fill="#ffeb99"/><g fill="#57565c"><path d="m281.199219 318.476562c-4.144531 0-7.5-3.359374-7.5-7.5v-12.449218c0-4.144532 3.355469-7.503906 7.5-7.503906s7.5 3.359374 7.5 7.503906v12.449218c0 4.140626-3.355469 7.5-7.5 7.5zm0 0"/><path d="m119.878906 318.476562c-4.140625 0-7.5-3.359374-7.5-7.5v-12.449218c0-4.144532 3.359375-7.503906 7.5-7.503906 4.144532 0 7.5 3.359374 7.5 7.503906v12.449218c0 4.140626-3.355468 7.5-7.5 7.5zm0 0"/><path d="m200.539062 326.332031c-9.707031 0-19.414062-3.144531-27.515624-9.425781-3.273438-2.539062-3.867188-7.25-1.328126-10.523438 2.535157-3.273437 7.25-3.871093 10.523438-1.332031 10.785156 8.371094 25.855469 8.371094 36.640625 0 3.273437-2.539062 7.984375-1.941406 10.523437 1.332031 2.539063 3.273438 1.945313 7.984376-1.328124 10.523438-8.101563 6.28125-17.808594 9.425781-27.515626 9.425781zm0 0"/></g><path d="m281.199219 291.027344c-4.144531 0-7.5 3.355468-7.5 7.5v12.449218c0 4.144532 3.355469 7.5 7.5 7.5s7.5-3.355468 7.5-7.5v-12.449218c0-4.144532-3.355469-7.5-7.5-7.5zm0 0"/><path d="m119.878906 291.027344c-4.140625 0-7.5 3.355468-7.5 7.5v12.449218c0 4.144532 3.359375 7.5 7.5 7.5 4.144532 0 7.5-3.355468 7.5-7.5v-12.449218c0-4.144532-3.355468-7.5-7.5-7.5zm0 0"/><path d="m218.859375 305.054688c-10.785156 8.367187-25.851563 8.367187-36.640625 0-3.273438-2.539063-7.984375-1.945313-10.523438 1.328124-2.539062 3.273438-1.941406 7.984376 1.328126 10.523438 8.101562 6.285156 17.808593 9.425781 27.515624 9.425781 9.707032 0 19.414063-3.140625 27.515626-9.425781 3.273437-2.539062 3.867187-7.25 1.328124-10.523438-2.539062-3.273437-7.25-3.867187-10.523437-1.328124zm0 0"/><path d="m505.382812 336.734375-21.855468-37.0625c-2.105469-3.566406-6.703125-4.753906-10.269532-2.648437-3.570312 2.105468-4.753906 6.703124-2.652343 10.269531l21.859375 37.058593c4.683594 7.945313 11.070312 33.921876-13.734375 46.058594-24.804688 12.140625-41.453125-8.574218-44.90625-17.125l-81.742188-202.464844 29.457031-14.53125 74.011719 125.480469c3.390625 5.175781 9.074219 3.351563 10.269531 2.648438 3.570313-2.105469 4.757813-6.703125 2.652344-10.269531l-73.441406-124.515626 8.476562-4.183593c7.886719-3.890625 14.050782-10.558594 16.632813-19.015625 6.296875-20.636719-7.859375-34.523438-12.371094-37.660156 7.828125-9.710938 9.820313-23.472657 3.949219-35.375-3.890625-7.882813-14.289062-18.738282-30.496094-18.390626.257813-5.511718-.839844-11.070312-3.324218-16.101562-8.054688-16.328125-27.894532-23.054688-44.222657-15l-44.355469 21.882812h-239.355468c-27.550782 0-49.964844 22.414063-49.964844 49.964844 0 54.082032 51.761719 49.96875 51.761719 49.96875 1.78125 12.726563-1.136719 25.035156-8.722657 36.667969-5.449218 8.355469-12.855468 20.917969-19.882812 36.742187-.015625.035157-.035156.070313-.050781.105469-16.15625 36.40625-30.296875 90.042969-14.082031 149.539063 11.871093 43.542968 52.007812 73.957031 97.613281 73.957031h187.804687c45.605469 0 85.742188-30.414063 97.613282-73.957031 2.3125-8.488282 4.066406-17.121094 5.257812-25.855469l22.601562 55.976563c18.027344 42.1875 58.828126 28.234374 65.453126 24.964843 11.878906-5.859375 20.867187-16.503906 24.652343-29.199219 3.785157-12.695312 2.09375-26.519531-4.636719-37.929687zm-108.511718-204.734375-73.394532 36.207031c-14.3125 5.554688-22.015624-3.894531-24.132812-8.1875-2.140625-4.339843-2.398438-9.40625-.792969-13.964843l95.914063-47.320313c4.597656 1.492187 8.433594 4.753906 10.589844 9.132813 4.398437 8.910156.726562 19.734374-8.183594 24.132812zm-56.558594-114.640625c8.910156-4.398437 19.734375-.722656 24.132812 8.1875 2.140626 4.335937 2.394532 9.402344.792969 13.964844l-53.929687 26.605469c-3.714844 1.832031-5.242188 6.332031-3.410156 10.046874 1.835937 3.710938 6.332031 5.238282 10.046874 3.40625l56.183594-27.71875c4.292969-2.117187 18.472656-4.421874 24.132813 8.1875 5.65625 12.609376-3.898438 22.015626-8.1875 24.132813l-100.417969 49.539063c-4.292969 2.121093-9.175781 2.429687-13.75.875-4.578125-1.550782-8.265625-4.769532-10.382812-9.0625-4.394532-8.910157-.722657-19.734376 8.1875-24.132813l16.878906-8.324219c3.710937-1.832031 5.238281-6.332031 3.40625-10.042968-1.832032-3.714844-6.328125-5.242188-10.042969-3.410157l-14.632813 7.21875c-4.59375-1.496093-8.429687-4.753906-10.589843-9.132812-2.117188-4.292969-2.429688-9.175781-.875-13.75 1.550781-4.578125 4.769531-8.265625 9.0625-10.382813zm-90.898438 93.363281h-24.539062v-69.933594h34.117188c-7.238282 3.972657-12.660157 10.429688-15.34375 18.339844-2.839844 8.371094-2.167969 31.199219 12.367187 37.660156-5.003906 5.144532-6.332031 12.667969-6.601563 13.933594zm-96.503906-52.183594c-12.960937 0-23.503906 10.542969-23.503906 23.503907v55.363281c0 9.226562-7.507812 16.730469-16.730469 16.730469-9.226562 0-16.730469-7.503907-16.730469-16.730469v-96.617188h113.929688v76.589844c0 9.226563-7.503906 16.730469-16.730469 16.730469-9.226562 0-16.730469-7.507813-16.730469-16.730469v-35.335937c0-12.960938-10.542968-23.503907-23.503906-23.503907zm-8.503906 52.183594v-28.679687c0-4.691407 3.816406-8.503907 8.503906-8.503907s8.503906 3.8125 8.503906 8.503907v28.679687zm-129.40625-34.96875c0-19.277344 15.6875-34.964844 34.964844-34.964844h30.980468v69.933594h-30.980468c-19.277344 0-34.964844-15.6875-34.964844-34.96875zm362.582031 269.078125c-10.09375 37.035157-44.28125 62.902344-83.140625 62.902344h-187.804687c-38.855469 0-73.042969-25.867187-83.140625-62.902344-14.453125-53.03125-2.878906-101.265625 11.449218-135.210937h37.566407c4.144531 0 7.5-3.355469 7.5-7.5 0-4.140625-3.355469-7.5-7.5-7.5h-30.652344c5-9.988282 9.894531-18.132813 13.746094-24.035156 9.253906-14.191407 13.019531-29.246094 11.28125-44.863282h14.058593v11.683594c0 17.496094 14.234376 31.730469 31.730469 31.730469 17.496094 0 31.730469-14.234375 31.730469-31.730469v-11.683594h18.128906c3.671875 13.460938 16 23.386719 30.609375 23.386719s26.9375-9.925781 30.609375-23.386719h25.9375c.5625 2.199219 4.496094 24.277344 32.875 24.824219-.257812 5.515625.839844 11.074219 3.324219 16.109375 5.746094 11.644531 21.890625 24.230469 44.222656 15.003906l8.476563-4.183594 6.921875 17.144532h-242.03125c-4.144531 0-7.5 3.359375-7.5 7.5 0 4.144531 3.355469 7.5 7.5 7.5h248.089843l32.566407 80.667968c.457031 18.546876-1.742188 36.886719-6.554688 54.542969zm0 0"/></svg>